<mxfile host="app.diagrams.net" modified="2024-01-24T10:34:08.008Z" agent="Mozilla/5.0 (Windows NT 10.0; Win64; x64) AppleWebKit/537.36 (KHTML, like Gecko) Chrome/120.0.0.0 Safari/537.36" etag="CysDZy5-AWujk4hz-7Bo" version="22.1.21" type="device">
  <diagram name="Page-1" id="nem4wGb0H2v3EEpigJfF">
    <mxGraphModel dx="955" dy="506" grid="1" gridSize="10" guides="1" tooltips="1" connect="1" arrows="1" fold="1" page="1" pageScale="1" pageWidth="850" pageHeight="1100" math="0" shadow="0">
      <root>
        <mxCell id="0" />
        <mxCell id="1" parent="0" />
        <mxCell id="RGP8zwrcFJWfab5B-1JW-3" value="" style="edgeStyle=orthogonalEdgeStyle;rounded=0;orthogonalLoop=1;jettySize=auto;html=1;" edge="1" parent="1" source="RGP8zwrcFJWfab5B-1JW-1" target="RGP8zwrcFJWfab5B-1JW-2">
          <mxGeometry relative="1" as="geometry" />
        </mxCell>
        <mxCell id="RGP8zwrcFJWfab5B-1JW-1" value="&lt;font style=&quot;font-size: 20px;&quot;&gt;Start&lt;/font&gt;" style="ellipse;whiteSpace=wrap;html=1;" vertex="1" parent="1">
          <mxGeometry x="340" width="120" height="80" as="geometry" />
        </mxCell>
        <mxCell id="RGP8zwrcFJWfab5B-1JW-5" value="" style="edgeStyle=orthogonalEdgeStyle;rounded=0;orthogonalLoop=1;jettySize=auto;html=1;" edge="1" parent="1" source="RGP8zwrcFJWfab5B-1JW-2" target="RGP8zwrcFJWfab5B-1JW-4">
          <mxGeometry relative="1" as="geometry">
            <Array as="points">
              <mxPoint x="400" y="300" />
              <mxPoint x="395" y="300" />
            </Array>
          </mxGeometry>
        </mxCell>
        <mxCell id="RGP8zwrcFJWfab5B-1JW-2" value="&lt;font style=&quot;font-size: 20px;&quot;&gt;Enter Two Numbers&lt;/font&gt;" style="shape=parallelogram;perimeter=parallelogramPerimeter;whiteSpace=wrap;html=1;fixedSize=1;" vertex="1" parent="1">
          <mxGeometry x="340" y="170" width="120" height="80" as="geometry" />
        </mxCell>
        <mxCell id="RGP8zwrcFJWfab5B-1JW-10" value="" style="edgeStyle=orthogonalEdgeStyle;rounded=0;orthogonalLoop=1;jettySize=auto;html=1;" edge="1" parent="1" source="RGP8zwrcFJWfab5B-1JW-4" target="RGP8zwrcFJWfab5B-1JW-9">
          <mxGeometry relative="1" as="geometry" />
        </mxCell>
        <mxCell id="RGP8zwrcFJWfab5B-1JW-4" value="&lt;font style=&quot;font-size: 13px;&quot;&gt;result= Addition(num1+num2)&lt;/font&gt;" style="whiteSpace=wrap;html=1;" vertex="1" parent="1">
          <mxGeometry x="330" y="340" width="130" height="70" as="geometry" />
        </mxCell>
        <mxCell id="RGP8zwrcFJWfab5B-1JW-12" value="" style="edgeStyle=orthogonalEdgeStyle;rounded=0;orthogonalLoop=1;jettySize=auto;html=1;" edge="1" parent="1" source="RGP8zwrcFJWfab5B-1JW-9" target="RGP8zwrcFJWfab5B-1JW-11">
          <mxGeometry relative="1" as="geometry" />
        </mxCell>
        <mxCell id="RGP8zwrcFJWfab5B-1JW-9" value="&lt;font style=&quot;font-size: 16px;&quot;&gt;Result&lt;/font&gt;" style="shape=parallelogram;perimeter=parallelogramPerimeter;whiteSpace=wrap;html=1;fixedSize=1;" vertex="1" parent="1">
          <mxGeometry x="335" y="495" width="120" height="60" as="geometry" />
        </mxCell>
        <mxCell id="RGP8zwrcFJWfab5B-1JW-11" value="&lt;font style=&quot;font-size: 16px;&quot;&gt;Stop&lt;/font&gt;" style="ellipse;whiteSpace=wrap;html=1;" vertex="1" parent="1">
          <mxGeometry x="355" y="625" width="80" height="80" as="geometry" />
        </mxCell>
      </root>
    </mxGraphModel>
  </diagram>
</mxfile>
